<svg viewBox="0 -2 512 512" xmlns="http://www.w3.org/2000/svg"><path d="m24 276.726562h464c8.835938 0 16 7.164063 16 16v192c0 8.839844-7.164062 16-16 16h-464c-8.835938 0-16-7.160156-16-16v-192c0-8.835937 7.164062-16 16-16zm0 0" fill="#e2fc85"/><path d="m424 372.726562h48v96h-48zm0 0" fill="#ff8a65"/><g fill="#8edf78"><path d="m120 436.726562h256c8.835938 0 16 7.164063 16 16 0 8.839844-7.164062 16-16 16h-256c-8.835938 0-16-7.160156-16-16 0-8.835937 7.164062-16 16-16zm0 0"/><path d="m40 436.726562h32v32h-32zm0 0"/><path d="m40 372.726562h32v32h-32zm0 0"/><path d="m104 372.726562h32v32h-32zm0 0"/><path d="m168 372.726562h32v32h-32zm0 0"/><path d="m232 372.726562h32v32h-32zm0 0"/><path d="m296 372.726562h32v32h-32zm0 0"/><path d="m360 372.726562h32v32h-32zm0 0"/><path d="m40 308.726562h32v32h-32zm0 0"/><path d="m104 308.726562h32v32h-32zm0 0"/><path d="m168 308.726562h32v32h-32zm0 0"/><path d="m232 308.726562h32v32h-32zm0 0"/><path d="m296 308.726562h32v32h-32zm0 0"/><path d="m360 308.726562h112v32h-112zm0 0"/></g><path d="m496 12.726562-192 64 96 32 32 88zm0 0" fill="#a6e7ff"/><path d="m488 268.726562h-224v-24c-.027344-22.078124-17.917969-39.972656-40-40h-188c-11.046875 0-20-8.953124-20-20 0-11.042968 8.953125-20 20-20h282.0625c23.867188.066407 46.765625-9.421874 63.59375-26.34375l-11.3125-11.3125c-13.835938 13.914063-32.660156 21.710938-52.28125 21.65625h-282.0625c-19.882812 0-36 16.121094-36 36 0 19.882813 16.117188 36 36 36h188c13.253906 0 24 10.746094 24 24v24h-224c-13.253906 0-24 10.746094-24 24v192c0 13.257813 10.746094 24 24 24h464c13.253906 0 24-10.742187 24-24v-192c0-13.253906-10.746094-24-24-24zm8 216c0 4.417969-3.582031 8-8 8h-464c-4.417969 0-8-3.582031-8-8v-192c0-4.417968 3.582031-8 8-8h464c4.417969 0 8 3.582032 8 8zm0 0"/><path d="m416 476.726562h64v-112h-64zm16-96h32v80h-32zm0 0"/><path d="m376 428.726562h-256c-13.253906 0-24 10.746094-24 24 0 13.257813 10.746094 24 24 24h256c13.253906 0 24-10.742187 24-24 0-13.253906-10.746094-24-24-24zm0 32h-256c-4.417969 0-8-3.582031-8-8 0-4.417968 3.582031-8 8-8h256c4.417969 0 8 3.582032 8 8 0 4.417969-3.582031 8-8 8zm0 0"/><path d="m32 476.726562h48v-48h-48zm16-32h16v16h-16zm0 0"/><path d="m32 412.726562h48v-48h-48zm16-32h16v16h-16zm0 0"/><path d="m144 364.726562h-48v48h48zm-16 32h-16v-16h16zm0 0"/><path d="m208 364.726562h-48v48h48zm-16 32h-16v-16h16zm0 0"/><path d="m272 364.726562h-48v48h48zm-16 32h-16v-16h16zm0 0"/><path d="m336 364.726562h-48v48h48zm-16 32h-16v-16h16zm0 0"/><path d="m352 412.726562h48v-48h-48zm16-32h16v16h-16zm0 0"/><path d="m32 348.726562h48v-48h-48zm16-32h16v16h-16zm0 0"/><path d="m144 300.726562h-48v48h48zm-16 32h-16v-16h16zm0 0"/><path d="m208 300.726562h-48v48h48zm-16 32h-16v-16h16zm0 0"/><path d="m272 300.726562h-48v48h48zm-16 32h-16v-16h16zm0 0"/><path d="m336 300.726562h-48v48h48zm-16 32h-16v-16h16zm0 0"/><path d="m352 348.726562h128v-48h-128zm16-32h96v16h-96zm0 0"/><path d="m48 236.726562h80v16h-80zm0 0"/><path d="m280 220.726562h16v32h-16zm0 0"/><path d="m144 236.726562h48v16h-48zm0 0"/><path d="m160 116.726562h16v16h-16zm0 0"/><path d="m208 116.726562h80v16h-80zm0 0"/><path d="m432.167969 220.59375 76.726562-220.59375-230.191406 76.726562 115.105469 38.402344zm-.335938-47.730469-22.574219-62.078125 67.726563-67.730468zm34.566407-141.824219-68.558594 68.535157-68.542969-22.847657zm0 0"/></svg>