<svg xmlns="http://www.w3.org/2000/svg" viewBox="0 0 125 125"><title>3 pipe</title><g id="person_3" data-name="person 3"><g id="sweater-2" data-name="sweater"><polyline points="65.42 124.97 59.72 92.46 63.21 90.13 89.81 95.48 81.31 124.97" fill="#3bc3ed" stroke="#020202" stroke-miterlimit="10" stroke-width="0.75"/></g><g id="face"><path id="face-2" data-name="face" d="M86.85,61.78s-.52,8.87-.7,9.6a12.24,12.24,0,0,1-1.42,3.42c-3.56,6.44-9.19,13.94-17.44,12.47C61.87,86.32,59.2,82,56.16,78c-2.71-3.61-4.13-6.54-4.32-7.45s-.26-4.18-.26-4.18l-.46.12s-.07.92-.86,1c-1.16.15-1.85-1.3-2.15-2.19-.5-1.48-.28-3.11-.81-4.59s-3-6.65-1-8c1.69-1.15,3.2.48,3.75,2a12.4,12.4,0,0,1,.42,1.57l.33-.08s0-2.87,0-4.89c.09-3.75-1.06-7.94.34-11.56,4.63-12,9-12.41,19.74-12.76,9.57-.32,14.94,7.45,15.66,11a35,35,0,0,1,.85,8.66c-.14,2.63-.5,9.2-.5,9.2l.31.06a28.21,28.21,0,0,1,1.27-3.2A1.77,1.77,0,0,1,90.82,52a1.75,1.75,0,0,1,.7,2c-.29,1-.79,4-1,5.19a15.4,15.4,0,0,0,0,2.63c0,.8-.35,3.58-1.52,3.55C88.27,65.37,86.49,65.41,86.85,61.78Z" fill="#f4bc95" stroke="#020202" stroke-miterlimit="10" stroke-width="0.75"/></g><g id="nose-2" data-name="nose"><path d="M73.8,49c.12.75.46.65,1.21,2.16s.45,1.69.58,2.88,2.25.39,3.75,3.27c1,1.95.74,3.18.47,5.32-.12,1,.11,3.43-.53,4.21a2.67,2.67,0,0,1-2.62.69c-2-.38-5.07-1.09-6.53-2.65-.88-.94,0-2.1-1.35-2.71-.93-.42-2.57.3-3.25-.68-.46-.66-.56-4.26.75-4" fill="none" stroke="#020202" stroke-miterlimit="10" stroke-width="0.75"/></g><g id="raincoat"><polygon id="interior_raincoat" data-name="interior raincoat" points="37.55 58.93 46.84 53.62 54.63 86.43 36.3 86.43 32.53 71.05 37.55 58.93" fill="#ba9e27" stroke="#020202" stroke-miterlimit="10" stroke-width="0.75"/><path d="M74.66,125s-6.3-24.63-8.55-27.42S56.89,86.9,54.63,86.43a22.28,22.28,0,0,1-7.9-3.11c-3.95-2.25-11.66-9.87-11.66-9.87s1.6-6.49,3.57-8.28,7.15-9.87,9.6-13.73,6.3-16.65,12.13-19.28,13.26-1,17.87-.75S86.82,37.15,87,40.9c.27,5.27.64,21,.69,22.34.09,2.32-10.82,28.85-11.82,34.34s.5,28.43.5,28.43l19.19,0h6.13l19.75.05a28.48,28.48,0,0,0-1.68-12.76c-2.51-6-4-6.52-6-10.28s-6-5.23-10.89-8.89-11.68-8.26-11.68-8.26.25-5.15.25-8.67-.5-6,1-9.05,1.5-8.29,1.76-12.29-.76-10.75-1-14-3-8.54-4.76-11.8-3.7-5.77-8.75-8S66.92,15.93,61.91,14.3s-7.78-2.88-11.54,0-7,10.31-9,15.41c-1.69,4.38-4.94,11.17-6.51,14.68s-3.32,6.88-3.57,10.15-1.12,6.4-3.88,10.91,4.82,12,4.57,14.87-.32,6.59-.32,6.59c0,1-10.73,6.23-12.16,7.26A29.53,29.53,0,0,0,10,105.56c-1.38,2.83-2.49,5.77-3.75,8.65a12.15,12.15,0,0,0-1.45,6.68V125" fill="#f7de48" stroke="#020202" stroke-miterlimit="10" stroke-width="0.75"/><path d="M89.93,91.88s3.89,9.8,5.43,14.55c1.2,3.68,2.69,9.94,2.3,11.2l.8,5.19-1,.4-.78-5.32a64.83,64.83,0,0,1-3.76-10.47,95.28,95.28,0,0,0-5.19-13.69" fill="#fff" stroke="#000" stroke-miterlimit="10" stroke-width="0.75"/><path d="M44.67,91.07a78.62,78.62,0,0,0,.92,12.86c.8,4.32,1.6,10.51,1,11.91l.2,6-1.11.32L45.54,116a51.93,51.93,0,0,1-2.66-11.24,94.87,94.87,0,0,1-.56-13.34" fill="#fff" stroke="#000" stroke-miterlimit="10" stroke-width="0.75"/><path d="M87.79,86.86a18.93,18.93,0,0,1,2.1,1.43,8.51,8.51,0,0,1,1.64,1.8,1.73,1.73,0,0,1,.22.31c.16.47-2,1.78-2.3,2.08L87.66,94A29.53,29.53,0,0,0,83,98.71a20,20,0,0,0-2.72,5.18,43.58,43.58,0,0,0-1.8,7.2c-.59,3.31-1.53,6.55-2.37,9.8" fill="none" stroke="#020202" stroke-miterlimit="10" stroke-width="0.75"/><path d="M50.44,89.12a136,136,0,0,1,5.13,15.59c2.82,10.22,6,20.29,6,20.29" fill="none" stroke="#020202" stroke-miterlimit="10" stroke-width="0.75"/><path d="M35.14,73.48s-1.49,3.29-.67,5.86.44,2.13,1.63,5.46,5.39,7.08,5.39,7.08,7.46-1.88,9.09-3a12,12,0,0,0,2.05-1.63" fill="none" stroke="#020202" stroke-miterlimit="10" stroke-width="0.75"/></g><g id="beard"><path d="M86.25,55.32a9.7,9.7,0,0,1,1.15-4.4,52.36,52.36,0,0,1,2.34,9.78c.13.92.15,2-.64,2.55A2.56,2.56,0,0,1,88.89,67a5.43,5.43,0,0,1-1.3,5.66,4.33,4.33,0,0,1-.84,3,4.58,4.58,0,0,1,1.44,1.69,1.68,1.68,0,0,1-.44,2,3.48,3.48,0,0,1,1.51,3.12,9.1,9.1,0,0,1-1,3.47,7.71,7.71,0,0,1-1.46,2.33,2.89,2.89,0,0,1-2.51.88,2,2,0,0,1-.42,2.64c-.68.7-1.61,1.15-2.26,1.89a13,13,0,0,1-1,1.29c-.57.52-1.36.73-2,1.19s-1,1.15-1.69,1.51c-1.3.69-2.86-.17-4.09-1a3.38,3.38,0,0,1-5.72-.1,4.29,4.29,0,0,1-5.56-.85c-1.64.54-3.83.9-4.76-.55-.51-.8-.39-1.87-.85-2.71s-1.3-1.26-1.7-2.06c-.29-.58-.29-1.27-.56-1.86a12.32,12.32,0,0,0-.75-1.18c-.38-.64-2.37-.46-3.1-2.47A29.72,29.72,0,0,1,48.32,80c-1.14-.11-3.63-.19-3.37-1.31a3.51,3.51,0,0,0,.2-.85,3,3,0,0,0-.6-1.34,2.53,2.53,0,0,1-.21-2.73c-1.77-.75-2.42-1.63-2.32-3.54s1.44-4.16.26-5.66c-.58-.74.14-2.54,0-3.54s2.9-5.18,3.49-6.1c1.75-2.72,3.75-4.87,5.25-8.69.15,5.55.71,11.92.85,17.47C52,67.68,52.25,72,55,74.85a2.11,2.11,0,0,0,.83.59A1.91,1.91,0,0,0,57.53,75c1.21-1,1.83-2.53,3.07-3.45a8,8,0,0,1,4.58-1.08l9.29-.3a8.91,8.91,0,0,1,4.76.73c1.82,1,2.66,3.18,3.36,5.16,1-.76.23-2.31.34-3.54s1.28-2.26,2.07-3.32c1.87-2.52,1.75-5.94,1.47-9.06A33.33,33.33,0,0,1,86.25,55.32Z" fill="#eae4e1" stroke="#020202" stroke-miterlimit="10" stroke-width="0.75"/></g><g id="eyes-2" data-name="eyes"><path id="Eye" d="M67.07,48.19c0,1.32-.54,2.39-1.22,2.39s-1.21-1.07-1.21-2.39,0-2.39,1.21-2.39C66.68,45.8,67.07,46.87,67.07,48.19Z" fill="#fff" stroke="#020202" stroke-miterlimit="10" stroke-width="0.75"/><path id="Eye-2" data-name="Eye" d="M82.75,47.76c0,1.42-.55,2.57-1.22,2.57s-1.22-1.15-1.22-2.57.11-2.45,1.22-2S82.75,46.33,82.75,47.76Z" fill="#fff" stroke="#020202" stroke-miterlimit="10" stroke-width="0.75"/><path id="undereye" d="M67.08,51.78s-.84,1.67-1.89,1.88a3.42,3.42,0,0,1-3-1.35" fill="none" stroke="#020202" stroke-miterlimit="10" stroke-width="0.75"/><path id="undereye-2" data-name="undereye" d="M78.06,52s1.51,2.22,2.69,2.22,2.46-2.12,2.63-2.48" fill="none" stroke="#020202" stroke-miterlimit="10" stroke-width="0.75"/><path id="eyebrow" d="M78.16,41.61c1.73-1.66,2.42-.83,4.46.83a18.73,18.73,0,0,0,2.29,1.78" fill="none" stroke="#020202" stroke-miterlimit="10" stroke-width="0.75"/><path id="eyebrow-2" data-name="eyebrow" d="M70.29,43.86a14.31,14.31,0,0,0-3.47-2.31c-2.31-1.16-5.26-3.07-7.58-.76S57.57,45,56.41,45" fill="none" stroke="#020202" stroke-miterlimit="10" stroke-width="0.75"/></g><path id="mouth" d="M76.9,82.2c-.75.31-1.85-.51-2.33-.94a7.33,7.33,0,0,0-7.24-1.32c-2.56.9-3.5,3-4.27,1.54s.45-3.13,1.06-4.42c.73-1.57,3.08-1.79,4.57-1.86,1.79-.09,4.21,0,5.66,1.31a12,12,0,0,1,2.59,3.33,3.23,3.23,0,0,1,.55,1.59A.9.9,0,0,1,76.9,82.2Z" fill="#fff" stroke="#020202" stroke-miterlimit="10" stroke-width="0.75"/><g id="pipe"><polygon points="69.42 75.33 57.63 97.04 52.79 94.03 64.06 76.41 69.42 75.33" fill="#020202" stroke="#020202" stroke-miterlimit="10" stroke-width="0.75"/><path d="M56.39,88.25a8.46,8.46,0,0,1,2.18.71,5.38,5.38,0,0,1,2.1,2.2l-5.28,10.67-3.23-6.67,4.23-6.91" fill="#634a26" stroke="#020202" stroke-miterlimit="10" stroke-width="0.75"/><path d="M41.86,95.44s-.53,5.55,1.33,8,5.32,2.59,7.75,2.29a5.52,5.52,0,0,0,4.42-3.89c.38-1.49-.6-8.85-1.18-9.83s-12.27,2.59-12.32,3.45" fill="#634a26" stroke="#020202" stroke-miterlimit="10" stroke-width="0.75"/><path d="M51.12,89.71c-2.17-.85-4.61-1.52-6.61.05-1.16.91-3.79,4.1-2.65,5.68,1,1.42,3.58,2.52,7.27,1.89s5.13-3.26,4.78-4.75S54.55,91.05,51.12,89.71Z" fill="#444131" stroke="#020202" stroke-miterlimit="10" stroke-width="0.75"/><path d="M40.38,48.32c-.31-1.11-.62-.71,0-3.4.5-2.21,1.66-3.5.44-5.73a7.81,7.81,0,0,0-2.6-2.42c-4-2.9-5.93-3-4.8-5.77s2.25-2.34,1.74-3.74-.31-1.85-1.64-2-.41.12-2.35,0-2,.05-3.28,0a21.39,21.39,0,0,1-2.66,0c-1.84-.19-2.46.11-4.09-1.43s-1.95-3.84-4.4-1.88S13.26,24.89,13.46,26s.31,2.19,1.44,1.95,0-.1,2.55,0,.82-.89,4.4.71,4,1.95,5.12,1.6S30.14,28.47,30,31s-1.94,4.15-.1,5.54.51,1.46,3.68,1.89c1.15.15,2.7,0,3.77.53,1.59.75,2.34,2,2,3.51-.82,3.35-1.64,3.17-.61,4.53a16,16,0,0,0,1.64,2" fill="#fff" stroke="#000" stroke-miterlimit="10" stroke-width="0.75"/></g></g></svg>