<?xml version="1.0" standalone="no"?><!DOCTYPE svg PUBLIC "-//W3C//DTD SVG 1.1//EN" "http://www.w3.org/Graphics/SVG/1.1/DTD/svg11.dtd"><svg class="icon" width="32px" height="32.00px" viewBox="0 0 1024 1024" version="1.1" xmlns="http://www.w3.org/2000/svg"><path fill="#707070" d="M912.920002 27.333633l-27.147936 0c-22.853949 0-41.591347 18.701911-41.591347 41.591347l0 363.391975c-5.890925-5.1102-11.639899-10.184912-18.772886-14.869262l-609.533257-393.591834c-80.556619-51.953697-146.385927-16.217786-146.385927 79.704919l0 816.886705c0 95.816243 65.829307 131.658616 146.385927 79.669432l609.533257-393.698297c7.132987-4.613375 12.881962-9.794549 18.772886-14.869262l0 363.569412c0 22.853949 18.737399 41.591347 41.591347 41.591347l27.147936 0c22.853949 0 41.591347-18.737399 41.591347-41.591347L954.51135 68.889493C954.51135 46.035544 935.773951 27.333633 912.920002 27.333633z" /></svg>