<?xml version="1.0" standalone="no"?><!DOCTYPE svg PUBLIC "-//W3C//DTD SVG 1.1//EN" "http://www.w3.org/Graphics/SVG/1.1/DTD/svg11.dtd"><svg class="icon" width="32px" height="32.00px" viewBox="0 0 1024 1024" version="1.1" xmlns="http://www.w3.org/2000/svg"><path fill="#707070" d="M111.081001 996.674695l27.147868 0c22.853891 0 41.591243-18.737352 41.591243-41.591243l0-363.391064c5.89091 5.110187 11.63987 10.220374 18.772839 14.869224l609.53173 393.555361c80.556418 51.953566 146.38556 16.217746 146.38556-79.70472l0-816.884658c0-95.816003-65.829143-131.658286-146.38556-79.669232l-609.53173 393.697311c-7.132969 4.613363-12.881929 9.794525-18.772839 14.904712L179.820112 68.82091c0-22.853891-18.737352-41.591243-41.591243-41.591243l-27.147868 0c-22.853891 0-41.591243 18.701864-41.591243 41.591243l0 886.227055C69.489759 977.937344 88.191623 996.674695 111.081001 996.674695z" /></svg>