<svg id="Layer_1" enable-background="new 0 0 128 128" height="512" viewBox="0 0 128 128" width="512" xmlns="http://www.w3.org/2000/svg"><path d="m107.873 94.78c2.468-5.398 1.865-13.419-1.537-20.434-3.866-7.971-10.017-14.529-12.456-16.956.172.172 3.169-5.094 3.386-5.59.888-2.03 1.422-4.174 1.695-6.371.653-5.237-.324-10.449-2.499-15.232-.295-.659-.611-1.311-.95-1.956 4.375-1.311 7.573-5.368 7.573-10.164 0-5.852-4.761-10.613-10.612-10.613-4.534 0-8.402 2.863-9.919 6.872-2.701-1.656-5.658-2.945-8.816-3.76-.15-.039-.3-.079-.451-.116-.306-.074-.615-.142-.924-.207-.233-.049-.467-.096-.702-.14-.266-.049-.532-.097-.801-.139-.289-.046-.58-.086-.872-.124-.234-.03-.467-.062-.703-.087-.35-.037-.705-.065-1.059-.09-.188-.014-.375-.032-.564-.042-.55-.029-1.103-.047-1.662-.047-6.258 0-11.989 1.883-16.87 4.95-1.463-4.112-5.383-7.07-9.992-7.07-5.852 0-10.612 4.761-10.612 10.613 0 4.919 3.369 9.055 7.917 10.252-2.342 4.485-3.65 9.331-3.65 14.012 0 5.708 1.936 10.832 5.356 15.019-2.42 2.405-8.605 8.985-12.485 16.986-3.401 7.015-4.005 15.036-1.537 20.434 1.232 2.695 3.103 4.446 5.41 5.064.26.07.506.104.757.152-.788 1.563-1.228 3.392-1.261 5.418-.061 3.753 1.259 7.731 3.716 11.202 3.568 5.041 8.808 7.919 13.497 7.919 2.064 0 4.022-.558 5.684-1.734 2.457-1.74 3.843-4.543 4.161-7.759 3.008.747 6.315 1.133 9.908 1.133 4.939 0 9.3-.65 13.072-1.928.154 3.548 1.561 6.672 4.219 8.554 1.662 1.176 3.62 1.734 5.684 1.734 4.69 0 9.929-2.878 13.498-7.919 2.457-3.471 3.776-7.449 3.716-11.202-.04-2.471-.677-4.654-1.827-6.408 1.442-.894 2.639-2.318 3.512-4.226z" fill="#e6e7e8"/><path d="m88.472 4.465c-4.57 0-8.388 3.193-9.364 7.468 4.504 3.007 8.254 7.067 10.891 11.624 4.581-.733 8.086-4.692 8.086-9.48 0-5.308-4.304-9.612-9.613-9.612z" fill="#fff"/><path d="m44.559 12.159c-.889-4.389-4.768-7.694-9.42-7.694-5.309 0-9.613 4.304-9.613 9.612 0 4.912 3.687 8.956 8.442 9.534 2.575-4.465 6.218-8.456 10.591-11.452z" fill="#fff"/><path d="m35.85 20.695c1.592-2.218 3.453-4.275 5.542-6.093-.622-1.897-2.386-3.276-4.491-3.276-2.622 0-4.747 2.125-4.747 4.747 0 2.26 1.582 4.142 3.696 4.622z" fill="#ffd7e5"/><path d="m88.079 20.596c1.949-.591 3.378-2.38 3.378-4.523 0-2.622-2.125-4.747-4.747-4.747-2.008 0-3.716 1.251-4.409 3.013 2.182 1.856 4.124 3.969 5.778 6.257z" fill="#ffd7e5"/><path d="m62 6.584c-17.787 0-32.206 16.251-32.206 31.757s14.419 25.474 32.206 25.474 32.206-9.968 32.206-25.474-14.419-31.757-32.206-31.757z" fill="#fff"/><path d="m79.869 117.985c-4.995-3.536-5.131-11.932-.303-18.753 2.904-4.103 6.942-6.686 10.787-7.336.815-3.18 1.235-6.672 1.235-10.467 0-8.553-3.213-17.009-8.209-23.549-5.687 3.809-13.172 5.935-21.379 5.935s-15.692-2.126-21.379-5.935c-4.996 6.54-8.209 14.996-8.209 23.549 0 3.764.453 7.23 1.307 10.389 4.649-.609 10.22 2.162 13.938 7.413 4.828 6.82 4.693 15.216-.303 18.753-1.489 1.054-3.243 1.545-5.097 1.552 1.182.141 2.372.09 3.546-.209 3.942-1.005 6.804-4.417 8.078-8.91 2.491.495 5.194.757 8.12.757 4.396 0 8.259-.535 11.622-1.545 1.151 4.88 4.112 8.635 8.28 9.698 1.292.329 2.606.376 3.904.174-2.164.163-4.226-.305-5.938-1.516z" fill="#fff"/><path d="m103.873 90.78c2.468-5.398 1.865-13.419-1.537-20.434-3.878-7.995-10.036-14.551-12.456-16.956 1.981-2.431 3.471-5.189 4.364-8.224.156-.53-.147-1.085-.677-1.242-.526-.153-1.085.147-1.242.677-3.256 11.065-15.159 18.214-30.325 18.214-18.083 0-31.207-10.293-31.207-24.474 0-14.518 13.346-30.757 31.207-30.757 15.58 0 27.251 12.426 30.324 24.118.141.533.684.855 1.222.713.534-.141.853-.688.713-1.221-.571-2.173-1.428-4.368-2.533-6.513.822-.407 1.578-.924 2.247-1.537 3.062-1.863 5.113-5.227 5.113-9.066 0-5.852-4.761-10.613-10.612-10.613-4.544 0-8.414 2.877-9.923 6.9-4.767-2.945-10.369-4.781-16.551-4.781-6.26 0-11.993 1.884-16.875 4.953-1.461-4.114-5.378-7.073-9.986-7.073-5.852 0-10.612 4.761-10.612 10.613 0 3.815 2.031 7.151 5.062 9.018.762.71 1.638 1.298 2.6 1.733-2.181 4.345-3.395 9.006-3.395 13.513 0 5.708 1.936 10.833 5.356 15.019-2.398 2.379-8.591 8.955-12.486 16.986-3.401 7.015-4.005 15.036-1.537 20.434 1.232 2.695 3.103 4.446 5.41 5.064.26.07.506.104.757.152-.788 1.563-1.228 3.392-1.261 5.418-.061 3.753 1.259 7.731 3.716 11.202 3.513 4.963 8.644 7.823 13.277 7.911.465.06.929.101 1.393.101.884 0 1.764-.109 2.629-.33 4.023-1.026 7.016-4.347 8.506-8.749 2.327.407 4.804.627 7.445.627 4.037 0 7.669-.456 10.928-1.313 1.402 4.744 4.497 8.357 8.727 9.435.866.221 1.745.33 2.629.33.52 0 1.041-.05 1.561-.125 4.457-.33 9.278-3.155 12.627-7.886 2.457-3.471 3.776-7.449 3.716-11.202-.04-2.471-.677-4.654-1.827-6.408 1.443-.895 2.64-2.319 3.513-4.227zm-21.092-77.333c.849-1.273 2.283-2.121 3.929-2.121 2.622 0 4.747 2.125 4.747 4.747 0 1.79-1.004 3.323-2.469 4.127-1.746-2.445-3.83-4.739-6.207-6.753zm14.304.631c0 .325-.023.643-.059.959-.519-4.819-4.597-8.571-9.554-8.571-1.797 0-3.47.506-4.907 1.365 1.542-1.462 3.618-2.365 5.907-2.365 4.75-.001 8.613 3.863 8.613 8.612zm-62.215 6.263c-1.601-.762-2.716-2.376-2.716-4.267 0-2.622 2.125-4.747 4.747-4.747 1.723 0 3.205.932 4.032 2.307-2.311 1.989-4.348 4.259-6.063 6.707zm.269-14.876c2.292 0 4.37.907 5.912 2.374-1.438-.863-3.111-1.374-4.912-1.374-4.957 0-9.036 3.754-9.554 8.573-.035-.316-.058-.635-.058-.961-.001-4.748 3.863-8.612 8.612-8.612zm38.925 92.801c-.539-.136-1.08.187-1.216.722-.877 3.44-.953 6.834-.388 9.887-3.109.846-6.583 1.3-10.461 1.3-2.45 0-4.743-.193-6.895-.55.727-3.238.7-6.915-.249-10.637-.137-.534-.679-.858-1.216-.722-.535.137-.858.681-.722 1.216 1.305 5.12.724 10.116-1.226 13.722 1.183-4.318.137-9.809-3.219-14.55-3.702-5.23-9.199-8.115-14.019-7.89-.675-2.829-1.042-5.931-1.042-9.335 0-7.992 2.949-15.907 7.516-22.165 5.614 3.518 12.859 5.551 21.072 5.551 8.166 0 15.442-1.998 21.093-5.522 4.555 6.253 7.495 14.157 7.495 22.136 0 3.536-.387 6.722-1.083 9.62-3.895.871-7.871 3.531-10.755 7.604-2.872 4.058-4.06 8.67-3.602 12.622-1.227-3.36-1.447-7.534-.361-11.794.137-.534-.186-1.078-.722-1.215z" fill="#3a2c60"/><path d="m94.085 40.967c.023.002.046.002.068.002.521 0 .961-.405.997-.933.038-.558.057-1.123.057-1.696 0-.803-.038-1.624-.113-2.438-.05-.55-.524-.951-1.087-.904-.55.05-.955.537-.904 1.087.069.754.104 1.513.104 2.255 0 .527-.017 1.048-.052 1.561-.037.553.379 1.029.93 1.066z" fill="#3a2c60"/><path d="m57.093 55.122c2.043 0 3.846-.949 4.907-2.388 1.061 1.439 2.864 2.388 4.907 2.388 3.257 0 5.907-2.412 5.907-5.376 0-.552-.448-1-1-1s-1 .448-1 1c0 1.861-1.753 3.376-3.907 3.376s-3.907-1.515-3.907-3.376v-2.944l4.358-3.886c.28-.25.082-.677-.315-.677h-10.087c-.396 0-.595.427-.315.677l4.359 3.885v2.944c0 1.861-1.753 3.376-3.907 3.376s-3.907-1.515-3.907-3.376c0-.552-.448-1-1-1s-1 .448-1 1c0 2.965 2.649 5.377 5.907 5.377z" fill="#3a2c60"/><path d="m80.767 42.513c.164-.316.207-.679.233-1.033.347-4.794-1.915-8.028-4.367-11.857-.407-.635-.9-1.224-1.46-1.725-1.463-1.309-3.38-2.02-5.394-1.402-1.746.536-3.342 1.802-2.744 4.721.706 3.45 1.317 7.051 2.924 10.221.782 1.542 1.917 3.355 3.622 3.921 2.798.928 5.798-.169 7.186-2.846zm-8.809-8.388c-1.023 0-1.852-.829-1.852-1.852s.829-1.852 1.852-1.852 1.852.829 1.852 1.852-.829 1.852-1.852 1.852z" fill="#3a2c60"/><path d="m54.278 41.438c1.607-3.17 2.218-6.771 2.924-10.221.598-2.919-.998-4.185-2.744-4.721-2.014-.618-3.931.093-5.393 1.402-.56.501-1.053 1.09-1.46 1.725-2.452 3.828-4.714 7.063-4.367 11.857.026.355.069.718.233 1.033 1.388 2.677 4.388 3.774 7.186 2.846 1.705-.566 2.839-2.379 3.621-3.921zm-4.236-9.166c0-1.023.829-1.852 1.852-1.852s1.852.829 1.852 1.852-.829 1.852-1.852 1.852-1.852-.829-1.852-1.852z" fill="#3a2c60"/><g fill="#ffd7e5"><ellipse cx="41.534" cy="110.025" rx="5.46" ry="5.802" transform="matrix(.84 -.542 .542 .84 -53.033 40.114)"/><path d="m31.91 102.803c-1.001 0-1.812.811-1.812 1.812s.811 1.812 1.812 1.812 1.812-.811 1.812-1.812-.811-1.812-1.812-1.812z"/><path d="m36.847 100.991c0-1.001-.811-1.812-1.812-1.812s-1.812.811-1.812 1.812.811 1.812 1.812 1.812 1.812-.811 1.812-1.812z"/><path d="m38.956 100.991c1.001 0 1.812-.811 1.812-1.812s-.811-1.812-1.812-1.812-1.812.811-1.812 1.812.811 1.812 1.812 1.812z"/><ellipse cx="85.688" cy="110.025" rx="5.802" ry="5.46" transform="matrix(.542 -.84 .84 .542 -53.223 122.339)"/><path d="m95.313 102.803c-1.001 0-1.812.811-1.812 1.812s.811 1.812 1.812 1.812 1.812-.811 1.812-1.812-.811-1.812-1.812-1.812z"/><path d="m92.188 99.179c-1.001 0-1.812.811-1.812 1.812s.811 1.812 1.812 1.812 1.812-.811 1.812-1.812-.811-1.812-1.812-1.812z"/><path d="m88.267 100.991c1.001 0 1.812-.811 1.812-1.812s-.811-1.812-1.812-1.812-1.812.811-1.812 1.812.811 1.812 1.812 1.812z"/></g></svg>