<?xml version="1.0" standalone="no"?><!DOCTYPE svg PUBLIC "-//W3C//DTD SVG 1.1//EN" "http://www.w3.org/Graphics/SVG/1.1/DTD/svg11.dtd"><svg class="icon" width="32px" height="32.00px" viewBox="0 0 1024 1024" version="1.1" xmlns="http://www.w3.org/2000/svg"><path fill="#707070" d="M812.343523 375.615721v-268.296944c0-11.924309-10.43377-22.358079-22.358079-22.358078s-22.358079 10.43377-22.358079 22.358078v693.100437c0 11.924309 10.43377 22.358079 22.358079 22.358079s22.358079-10.43377 22.358079-22.358079V533.612809c43.225619 0 78.998544-35.772926 78.998544-78.998544s-35.772926-78.998544-78.998544-78.998544zM326.427948 308.541485h-55.149928v286.183406h55.149928s22.358079-4.471616 59.621543-2.981077c92.413392 1.490539 268.296943 32.791849 369.653566 228.052401V83.47016c-143.091703 272.768559-429.275109 225.071325-429.275109 225.071325z"  /><path fill="#707070" d="M389.030568 608.139738c-35.772926 0-59.621543 2.981077-59.621543 2.981077h-55.149927v-2.981077c-2.981077 2.981077-5.962154 4.471616-5.962155 4.471616h5.962155s59.621543 256.372635 98.375545 260.84425c38.754003 5.962154 55.149927-19.377001 43.225619-53.659389-8.943231-25.339156-22.358079-152.034934-26.829694-211.656477zM120.733624 451.633188c0 78.998544 64.093159 143.091703 143.091704 143.091703h1.490538l-1.490538-284.692868c-78.998544-1.490539-143.091703 62.60262-143.091704 141.601165z"  /></svg>