<?xml version="1.0" standalone="no"?><!DOCTYPE svg PUBLIC "-//W3C//DTD SVG 1.1//EN" "http://www.w3.org/Graphics/SVG/1.1/DTD/svg11.dtd"><svg class="icon" width="32px" height="30.20px" viewBox="0 0 1085 1024" version="1.1" xmlns="http://www.w3.org/2000/svg"><path fill="#707070" d="M589.522824 902.023529C560.067765 886.543059 512.090353 886.633412 482.816 902.023529L275.847529 1010.838588C216.967529 1041.799529 178.386824 1013.488941 189.590588 948.163765L229.104941 717.703529C234.736941 684.875294 219.828706 639.307294 196.126118 616.207059L28.702118 452.999529C-18.944 406.558118-3.915294 361.110588 61.650824 351.593412L293.044706 317.982118C325.993412 313.193412 364.724706 284.912941 379.392 255.247059L482.876235 45.568C512.331294-14.095059 560.188235-13.854118 589.492706 45.568L692.976941 255.247059C707.704471 285.093647 746.586353 313.223529 779.324235 317.982118L1010.718118 351.593412C1076.555294 361.170824 1091.132235 406.738824 1043.666824 452.999529L876.242824 616.207059C852.389647 639.457882 837.662118 685.086118 843.264 717.703529L882.778353 948.163765C894.012235 1013.729882 855.160471 1041.679059 796.521412 1010.838588L589.522824 902.023529 589.522824 902.023529Z" /></svg>